<svg width="33" height="43" viewBox="0 0 33 43" fill="none" xmlns="http://www.w3.org/2000/svg">
<g clip-path="url(#clip0_60_397)">
<path d="M18.5367 42.0334C22.9453 36.6276 33 23.5259 33 16.1667C33 7.24133 25.6094 0 16.5 0C7.39062 0 0 7.24133 0 16.1667C0 23.5259 10.0547 36.6276 14.4633 42.0334C15.5203 43.3217 17.4797 43.3217 18.5367 42.0334ZM16.5 10.7778C19.5379 10.7778 22 13.1902 22 16.1667C22 19.1432 19.5379 21.5556 16.5 21.5556C13.4621 21.5556 11 19.1432 11 16.1667C11 13.1902 13.4621 10.7778 16.5 10.7778Z" fill="#7899D4"/>
</g>
<defs>
<clipPath id="clip0_60_397">
<rect width="33" height="43" fill="white"/>
</clipPath>
</defs>
</svg>
