<svg width="38" height="38" viewBox="0 0 38 38" fill="none" xmlns="http://www.w3.org/2000/svg">
<g clip-path="url(#clip0_60_406)">
<path d="M34.4375 19C34.4375 27.5262 27.5262 34.4375 19 34.4375C10.4738 34.4375 3.5625 27.5262 3.5625 19C3.5625 10.4738 10.4738 3.5625 19 3.5625C27.5262 3.5625 34.4375 10.4738 34.4375 19ZM0 19C0 29.493 8.50695 38 19 38C29.493 38 38 29.493 38 19C38 8.50695 29.493 0 19 0C8.50695 0 0 8.50695 0 19ZM17.2188 8.90625V19C17.2188 19.5938 17.5156 20.1504 18.0129 20.4844L25.1379 25.2344C25.9543 25.7836 27.0602 25.5609 27.6094 24.7371C28.1586 23.9133 27.9359 22.8148 27.1121 22.2656L20.7812 18.05V8.90625C20.7812 7.91914 19.9871 7.125 19 7.125C18.0129 7.125 17.2188 7.91914 17.2188 8.90625Z" fill="#7899D4"/>
</g>
<defs>
<clipPath id="clip0_60_406">
<rect width="38" height="38" fill="white"/>
</clipPath>
</defs>
</svg>
