<svg width="33" height="43" viewBox="0 0 33 43" fill="none" xmlns="http://www.w3.org/2000/svg">
<g clip-path="url(#clip0_60_394)">
<path d="M10.6279 2.06783C10.1316 0.50578 8.82329 -0.325633 7.57295 0.119467L1.90129 2.13501C0.779852 2.53812 0 3.86502 0 5.37668C0 26.1536 12.9288 43.0002 28.8739 43.0002C30.034 43.0002 31.0523 41.984 31.3617 40.5228L32.9085 33.1324C33.2501 31.5032 32.612 29.7984 31.4132 29.1517L25.226 25.7925C24.1754 25.2214 22.9573 25.6161 22.2419 26.7667L19.6381 30.9069C15.1008 28.1104 11.4271 23.3234 9.28089 17.4112L12.4583 14.0267C13.3413 13.0861 13.6442 11.5073 13.2059 10.1384L10.6279 2.07623V2.06783Z" fill="#7899D4"/>
</g>
<defs>
<clipPath id="clip0_60_394">
<rect width="33" height="43" fill="white"/>
</clipPath>
</defs>
</svg>
