<svg width="199" height="54" viewBox="0 0 199 54" fill="none" xmlns="http://www.w3.org/2000/svg">
<g filter="url(#filter0_i_60_510)">
<mask id="mask0_60_510" style="mask-type:alpha" maskUnits="userSpaceOnUse" x="0" y="0" width="199" height="54">
<rect width="199" height="54" rx="27" fill="#5187E8"/>
</mask>
<g mask="url(#mask0_60_510)">
<g filter="url(#filter1_f_60_510)">
<circle cx="185.5" cy="57.5" r="60.5" fill="#0C273E"/>
</g>
<g filter="url(#filter2_f_60_510)">
<circle cx="129.5" cy="-11.5" r="60.5" fill="#5187E8"/>
</g>
<g filter="url(#filter3_f_60_510)">
<circle cx="73.5" cy="45.5" r="37.5" fill="#78A2EE"/>
</g>
<g filter="url(#filter4_f_60_510)">
<ellipse cx="38.5" cy="28.5" rx="45.5" ry="47.5" fill="#5584ED"/>
</g>
<g filter="url(#filter5_f_60_510)">
<ellipse cx="19.5" cy="54" rx="28.5" ry="30" fill="#2D4E99"/>
</g>
<path d="M35.936 35H33.344V18.92H35.936V35ZM35.936 17.48H33.344V14.504H35.936V17.48ZM41.1374 35H38.5454V18.92H41.1374V35ZM48.8885 35.24C47.5925 35.24 46.5125 34.984 45.6485 34.472C44.7845 33.944 44.1445 33.216 43.7285 32.288C43.3125 31.344 43.1045 30.256 43.1045 29.024C43.1045 27.792 43.3365 26.712 43.8005 25.784C44.2805 24.856 44.9525 24.136 45.8165 23.624C46.6805 23.096 47.7045 22.832 48.8885 22.832C49.9605 22.832 50.9045 23.04 51.7205 23.456C52.5525 23.856 53.1925 24.44 53.6405 25.208C54.1045 25.976 54.3365 26.904 54.3365 27.992C54.3365 28.312 54.3205 28.624 54.2885 28.928C54.2725 29.216 54.2485 29.456 54.2165 29.648H44.3285V27.92H52.1045L51.8405 28.16C51.9045 27.424 51.8245 26.824 51.6005 26.36C51.3925 25.896 51.0485 25.552 50.5685 25.328C50.1045 25.104 49.5205 24.992 48.8165 24.992C47.5525 24.992 46.6885 25.312 46.2245 25.952C45.7605 26.576 45.5285 27.44 45.5285 28.544V29.264C45.5285 30.064 45.6245 30.744 45.8165 31.304C46.0245 31.848 46.3765 32.256 46.8725 32.528C47.3685 32.8 48.0485 32.936 48.9125 32.936C49.9205 32.936 50.6325 32.776 51.0485 32.456C51.4645 32.136 51.6725 31.712 51.6725 31.184V30.992H54.2405V31.208C54.2405 32.024 54.0165 32.736 53.5685 33.344C53.1205 33.936 52.4965 34.4 51.6965 34.736C50.9125 35.072 49.9765 35.24 48.8885 35.24ZM61.2796 35C59.9676 35 58.9596 34.72 58.2556 34.16C57.5676 33.6 57.2236 32.656 57.2236 31.328V23.336L57.8236 20.12H59.8156V31.208C59.8156 31.832 59.9676 32.232 60.2716 32.408C60.5916 32.568 61.1596 32.648 61.9756 32.648H63.4156V34.784C63.1756 34.848 62.8636 34.904 62.4796 34.952C62.0956 34.984 61.6956 35 61.2796 35ZM63.4156 25.232H55.2316V23.072H63.4156V25.232ZM67.5241 21.56H64.9561L64.9321 18.92H67.5241V21.56ZM67.5481 35H64.9561V23H67.5481V35ZM74.8739 35.24C73.1299 35.24 71.8099 34.896 70.9139 34.208C70.0179 33.504 69.5699 32.424 69.5699 30.968V30.92H72.0659V31.352C72.0659 31.768 72.1459 32.112 72.3059 32.384C72.4819 32.64 72.7699 32.832 73.1699 32.96C73.5859 33.072 74.1699 33.128 74.9219 33.128C75.5619 33.128 76.0419 33.08 76.3619 32.984C76.6979 32.872 76.9219 32.72 77.0339 32.528C77.1459 32.336 77.2019 32.096 77.2019 31.808C77.2019 31.328 77.0339 30.992 76.6979 30.8C76.3619 30.592 75.7619 30.408 74.8979 30.248L73.0259 29.936C72.3219 29.792 71.7059 29.592 71.1779 29.336C70.6659 29.064 70.2659 28.696 69.9779 28.232C69.7059 27.752 69.5699 27.152 69.5699 26.432C69.5699 25.36 69.9939 24.496 70.8419 23.84C71.6899 23.168 72.8899 22.832 74.4419 22.832C75.3859 22.832 76.2259 22.984 76.9619 23.288C77.6979 23.592 78.2819 24.048 78.7139 24.656C79.1459 25.264 79.3619 26.024 79.3619 26.936V27.152H76.8899V26.864C76.8899 26.48 76.8259 26.152 76.6979 25.88C76.5699 25.592 76.3299 25.368 75.9779 25.208C75.6259 25.048 75.0899 24.968 74.3699 24.968C73.4259 24.968 72.8019 25.088 72.4979 25.328C72.1939 25.568 72.0419 25.92 72.0419 26.384C72.0419 26.848 72.1779 27.176 72.4499 27.368C72.7379 27.544 73.2979 27.72 74.1299 27.896L76.1699 28.28C76.9379 28.424 77.5779 28.64 78.0899 28.928C78.6019 29.216 78.9859 29.592 79.2419 30.056C79.5139 30.52 79.6499 31.072 79.6499 31.712C79.6499 32.832 79.2259 33.704 78.3779 34.328C77.5459 34.936 76.3779 35.24 74.8739 35.24ZM75.2819 40.184H73.2899V38.72H75.2099C75.4819 38.72 75.6899 38.672 75.8339 38.576C75.9779 38.496 76.0499 38.352 76.0499 38.144C76.0499 37.888 75.9779 37.72 75.8339 37.64C75.6899 37.576 75.4819 37.544 75.2099 37.544H73.7699V34.928H75.2099V36.224H75.3539C76.0899 36.224 76.6579 36.392 77.0579 36.728C77.4579 37.08 77.6579 37.56 77.6579 38.168C77.6579 38.776 77.4499 39.264 77.0339 39.632C76.6179 40 76.0339 40.184 75.2819 40.184ZM84.0944 21.56H81.5264L81.5024 18.92H84.0944V21.56ZM84.1184 35H81.5264V23H84.1184V35ZM105.651 35H103.059V28.064C103.059 27.008 102.859 26.248 102.459 25.784C102.075 25.304 101.339 25.064 100.251 25.064C99.2746 25.064 98.5466 25.296 98.0666 25.76C97.6026 26.208 97.3706 26.976 97.3706 28.064L96.9146 28.112L96.6986 25.304H97.0826C97.2746 24.888 97.5386 24.496 97.8746 24.128C98.2266 23.744 98.6746 23.432 99.2186 23.192C99.7626 22.952 100.427 22.832 101.211 22.832C102.251 22.832 103.091 23.032 103.731 23.432C104.387 23.832 104.867 24.384 105.171 25.088C105.491 25.792 105.651 26.6 105.651 27.512V35ZM89.0906 35H86.4986V23.072H88.8746V26.648L89.0906 26.768V35ZM97.3706 35H94.7786V28.064C94.7786 27.008 94.5786 26.248 94.1786 25.784C93.7946 25.304 93.0586 25.064 91.9706 25.064C90.9946 25.064 90.2666 25.288 89.7866 25.736C89.3226 26.184 89.0906 26.952 89.0906 28.04L88.6346 28.112L88.4186 25.304H88.9946C89.1706 24.872 89.4266 24.472 89.7626 24.104C90.1146 23.736 90.5626 23.432 91.1066 23.192C91.6506 22.952 92.2986 22.832 93.0506 22.832C94.0586 22.832 94.8746 23.032 95.4986 23.432C96.1386 23.832 96.6106 24.384 96.9146 25.088C97.2186 25.792 97.3706 26.6 97.3706 27.512V35ZM113.389 35.24C112.093 35.24 111.013 34.984 110.149 34.472C109.285 33.944 108.645 33.216 108.229 32.288C107.813 31.344 107.604 30.256 107.604 29.024C107.604 27.792 107.837 26.712 108.301 25.784C108.781 24.856 109.453 24.136 110.317 23.624C111.181 23.096 112.205 22.832 113.389 22.832C114.461 22.832 115.405 23.04 116.221 23.456C117.053 23.856 117.693 24.44 118.141 25.208C118.605 25.976 118.837 26.904 118.837 27.992C118.837 28.312 118.821 28.624 118.789 28.928C118.773 29.216 118.749 29.456 118.717 29.648H108.829V27.92H116.605L116.341 28.16C116.405 27.424 116.325 26.824 116.101 26.36C115.893 25.896 115.549 25.552 115.069 25.328C114.605 25.104 114.021 24.992 113.317 24.992C112.053 24.992 111.189 25.312 110.725 25.952C110.261 26.576 110.029 27.44 110.029 28.544V29.264C110.029 30.064 110.125 30.744 110.317 31.304C110.525 31.848 110.877 32.256 111.373 32.528C111.869 32.8 112.549 32.936 113.413 32.936C114.421 32.936 115.133 32.776 115.549 32.456C115.965 32.136 116.173 31.712 116.173 31.184V30.992H118.741V31.208C118.741 32.024 118.517 32.736 118.069 33.344C117.621 33.936 116.997 34.4 116.197 34.736C115.413 35.072 114.477 35.24 113.389 35.24ZM132.217 35.24C130.697 35.24 129.401 34.904 128.329 34.232C127.273 33.56 126.465 32.608 125.905 31.376C125.345 30.128 125.065 28.656 125.065 26.96C125.065 25.28 125.369 23.824 125.977 22.592C126.601 21.344 127.481 20.384 128.617 19.712C129.769 19.024 131.137 18.68 132.721 18.68C134.161 18.68 135.393 18.928 136.417 19.424C137.441 19.904 138.233 20.592 138.793 21.488C139.353 22.368 139.633 23.432 139.633 24.68V24.848H136.897V24.68C136.897 23.448 136.561 22.56 135.889 22.016C135.233 21.456 134.137 21.176 132.601 21.176C131.481 21.176 130.561 21.368 129.841 21.752C129.137 22.136 128.625 22.752 128.305 23.6C127.985 24.448 127.825 25.568 127.825 26.96C127.825 28.352 127.993 29.472 128.329 30.32C128.665 31.152 129.201 31.76 129.937 32.144C130.689 32.528 131.649 32.72 132.817 32.72C133.809 32.72 134.625 32.616 135.265 32.408C135.905 32.2 136.385 31.848 136.705 31.352C137.025 30.856 137.185 30.192 137.185 29.36V28.616H139.681V28.976L137.521 32.48H137.185C136.993 32.976 136.673 33.432 136.225 33.848C135.793 34.264 135.241 34.6 134.569 34.856C133.913 35.112 133.129 35.24 132.217 35.24ZM139.681 35H137.305V30.92L137.185 30.68V27.2H139.681V35ZM139.681 28.976H132.145V26.744H139.681V28.976ZM147.584 35.24C146.288 35.24 145.208 34.984 144.344 34.472C143.48 33.944 142.84 33.216 142.424 32.288C142.008 31.344 141.8 30.256 141.8 29.024C141.8 27.792 142.032 26.712 142.496 25.784C142.976 24.856 143.648 24.136 144.512 23.624C145.376 23.096 146.4 22.832 147.584 22.832C148.656 22.832 149.6 23.04 150.416 23.456C151.248 23.856 151.888 24.44 152.336 25.208C152.8 25.976 153.032 26.904 153.032 27.992C153.032 28.312 153.016 28.624 152.984 28.928C152.968 29.216 152.944 29.456 152.912 29.648H143.024V27.92H150.8L150.536 28.16C150.6 27.424 150.52 26.824 150.296 26.36C150.088 25.896 149.744 25.552 149.264 25.328C148.8 25.104 148.216 24.992 147.512 24.992C146.248 24.992 145.384 25.312 144.92 25.952C144.456 26.576 144.224 27.44 144.224 28.544V29.264C144.224 30.064 144.32 30.744 144.512 31.304C144.72 31.848 145.072 32.256 145.568 32.528C146.064 32.8 146.744 32.936 147.608 32.936C148.616 32.936 149.328 32.776 149.744 32.456C150.16 32.136 150.368 31.712 150.368 31.184V30.992H152.936V31.208C152.936 32.024 152.712 32.736 152.264 33.344C151.816 33.936 151.192 34.4 150.392 34.736C149.608 35.072 148.672 35.24 147.584 35.24ZM160.569 35.264C159.321 35.264 158.265 35 157.401 34.472C156.537 33.944 155.873 33.216 155.409 32.288C154.961 31.36 154.737 30.28 154.737 29.048C154.737 27.816 154.969 26.736 155.433 25.808C155.913 24.864 156.593 24.136 157.473 23.624C158.353 23.096 159.417 22.832 160.665 22.832C161.721 22.832 162.649 23.032 163.449 23.432C164.249 23.832 164.865 24.392 165.297 25.112C165.745 25.832 165.969 26.672 165.969 27.632V27.848H163.401V27.704C163.401 26.824 163.161 26.184 162.681 25.784C162.217 25.368 161.489 25.16 160.497 25.16C159.345 25.16 158.521 25.488 158.025 26.144C157.545 26.784 157.305 27.744 157.305 29.024C157.305 30.32 157.545 31.296 158.025 31.952C158.521 32.592 159.345 32.912 160.497 32.912C161.489 32.912 162.217 32.712 162.681 32.312C163.161 31.896 163.401 31.256 163.401 30.392V30.248H165.969V30.464C165.969 31.392 165.745 32.224 165.297 32.96C164.849 33.68 164.217 34.248 163.401 34.664C162.601 35.064 161.657 35.264 160.569 35.264ZM161.217 40.184H159.225V38.72H161.145C161.417 38.72 161.625 38.672 161.769 38.576C161.913 38.496 161.985 38.352 161.985 38.144C161.985 37.888 161.913 37.72 161.769 37.64C161.625 37.576 161.417 37.544 161.145 37.544H159.705V34.928H161.145V36.224H161.289C162.025 36.224 162.593 36.392 162.993 36.728C163.393 37.08 163.593 37.56 163.593 38.168C163.593 38.776 163.385 39.264 162.969 39.632C162.553 40 161.969 40.184 161.217 40.184Z" fill="#F2F6FF"/>
</g>
</g>
<defs>
<filter id="filter0_i_60_510" x="0" y="0" width="199" height="57" filterUnits="userSpaceOnUse" color-interpolation-filters="sRGB">
<feFlood flood-opacity="0" result="BackgroundImageFix"/>
<feBlend mode="normal" in="SourceGraphic" in2="BackgroundImageFix" result="shape"/>
<feColorMatrix in="SourceAlpha" type="matrix" values="0 0 0 0 0 0 0 0 0 0 0 0 0 0 0 0 0 0 127 0" result="hardAlpha"/>
<feOffset dy="3"/>
<feGaussianBlur stdDeviation="1.55"/>
<feComposite in2="hardAlpha" operator="arithmetic" k2="-1" k3="1"/>
<feColorMatrix type="matrix" values="0 0 0 0 1 0 0 0 0 1 0 0 0 0 1 0 0 0 0.27 0"/>
<feBlend mode="normal" in2="shape" result="effect1_innerShadow_60_510"/>
</filter>
<filter id="filter1_f_60_510" x="92.3" y="-35.7" width="186.4" height="186.4" filterUnits="userSpaceOnUse" color-interpolation-filters="sRGB">
<feFlood flood-opacity="0" result="BackgroundImageFix"/>
<feBlend mode="normal" in="SourceGraphic" in2="BackgroundImageFix" result="shape"/>
<feGaussianBlur stdDeviation="16.35" result="effect1_foregroundBlur_60_510"/>
</filter>
<filter id="filter2_f_60_510" x="36.3" y="-104.7" width="186.4" height="186.4" filterUnits="userSpaceOnUse" color-interpolation-filters="sRGB">
<feFlood flood-opacity="0" result="BackgroundImageFix"/>
<feBlend mode="normal" in="SourceGraphic" in2="BackgroundImageFix" result="shape"/>
<feGaussianBlur stdDeviation="16.35" result="effect1_foregroundBlur_60_510"/>
</filter>
<filter id="filter3_f_60_510" x="3.3" y="-24.7" width="140.4" height="140.4" filterUnits="userSpaceOnUse" color-interpolation-filters="sRGB">
<feFlood flood-opacity="0" result="BackgroundImageFix"/>
<feBlend mode="normal" in="SourceGraphic" in2="BackgroundImageFix" result="shape"/>
<feGaussianBlur stdDeviation="16.35" result="effect1_foregroundBlur_60_510"/>
</filter>
<filter id="filter4_f_60_510" x="-39.7" y="-51.7" width="156.4" height="160.4" filterUnits="userSpaceOnUse" color-interpolation-filters="sRGB">
<feFlood flood-opacity="0" result="BackgroundImageFix"/>
<feBlend mode="normal" in="SourceGraphic" in2="BackgroundImageFix" result="shape"/>
<feGaussianBlur stdDeviation="16.35" result="effect1_foregroundBlur_60_510"/>
</filter>
<filter id="filter5_f_60_510" x="-41.7" y="-8.7" width="122.4" height="125.4" filterUnits="userSpaceOnUse" color-interpolation-filters="sRGB">
<feFlood flood-opacity="0" result="BackgroundImageFix"/>
<feBlend mode="normal" in="SourceGraphic" in2="BackgroundImageFix" result="shape"/>
<feGaussianBlur stdDeviation="16.35" result="effect1_foregroundBlur_60_510"/>
</filter>
</defs>
</svg>
