<svg width="219" height="39" viewBox="0 0 219 39" fill="none" xmlns="http://www.w3.org/2000/svg">
<g clip-path="url(#clip0_58_360)">
<path d="M21.7367 0.896501L25.9758 13.9033H39.6953C40.9562 13.9033 41.4797 15.5111 40.4602 16.2499L29.3608 24.2884L33.6 37.2951C33.99 38.4905 32.6176 39.484 31.598 38.7452L20.4987 30.7067L9.39934 38.7452C8.37978 39.484 7.00739 38.4905 7.39735 37.2951L11.6365 24.2884L0.538081 16.2499C-0.48148 15.5111 0.0420065 13.9033 1.30297 13.9033H15.0224L19.2616 0.896501C19.6515 -0.298834 21.3476 -0.298834 21.7367 0.896501Z" fill="#7899D4"/>
</g>
<g clip-path="url(#clip1_58_360)">
<path d="M110.267 0.896501L114.609 13.9033H128.663C129.955 13.9033 130.491 15.5111 129.447 16.2499L118.077 24.2884L122.42 37.2951C122.819 38.4905 121.413 39.484 120.369 38.7452L108.999 30.7067L97.6286 38.7452C96.5842 39.484 95.1783 38.4905 95.5778 37.2951L99.9204 24.2884L88.5512 16.2499C87.5068 15.5111 88.0431 13.9033 89.3348 13.9033H103.389L107.731 0.896501C108.131 -0.298834 109.868 -0.298834 110.267 0.896501Z" fill="#7899D4"/>
</g>
<g clip-path="url(#clip2_58_360)">
<path d="M66.2065 0.896501L70.3423 13.9033H83.7271C84.9573 13.9033 85.4681 15.5111 84.4734 16.2499L73.6447 24.2884L77.7805 37.2951C78.161 38.4905 76.8221 39.484 75.8274 38.7452L64.9988 30.7067L54.1701 38.7452C53.1754 39.484 51.8365 38.4905 52.217 37.2951L56.3528 24.2884L45.525 16.2499C44.5303 15.5111 45.041 13.9033 46.2712 13.9033H59.656L63.7918 0.896501C64.1723 -0.298834 65.8269 -0.298834 66.2065 0.896501Z" fill="#7899D4"/>
</g>
<g clip-path="url(#clip3_58_360)">
<path d="M155.207 0.896501L159.342 13.9033H172.727C173.957 13.9033 174.468 15.5111 173.473 16.2499L162.645 24.2884L166.781 37.2951C167.161 38.4905 165.822 39.484 164.827 38.7452L153.999 30.7067L143.17 38.7452C142.175 39.484 140.837 38.4905 141.217 37.2951L145.353 24.2884L134.525 16.2499C133.53 15.5111 134.041 13.9033 135.271 13.9033H148.656L152.792 0.896501C153.172 -0.298834 154.827 -0.298834 155.207 0.896501Z" fill="#7899D4"/>
</g>
<g clip-path="url(#clip4_58_360)">
<path d="M199.737 0.896501L203.976 13.9033H217.695C218.956 13.9033 219.48 15.5111 218.46 16.2499L207.361 24.2884L211.6 37.2951C211.99 38.4905 210.618 39.484 209.598 38.7452L198.499 30.7067L187.399 38.7452C186.38 39.484 185.007 38.4905 185.397 37.2951L189.637 24.2884L178.538 16.2499C177.519 15.5111 178.042 13.9033 179.303 13.9033H193.022L197.262 0.896501C197.652 -0.298834 199.348 -0.298834 199.737 0.896501Z" fill="#7899D4"/>
</g>
<defs>
<clipPath id="clip0_58_360">
<rect width="41" height="39" fill="white"/>
</clipPath>
<clipPath id="clip1_58_360">
<rect width="42" height="39" fill="white" transform="translate(88)"/>
</clipPath>
<clipPath id="clip2_58_360">
<rect width="40" height="39" fill="white" transform="translate(45)"/>
</clipPath>
<clipPath id="clip3_58_360">
<rect width="40" height="39" fill="white" transform="translate(134)"/>
</clipPath>
<clipPath id="clip4_58_360">
<rect width="41" height="39" fill="white" transform="translate(178)"/>
</clipPath>
</defs>
</svg>
